<?xml version="1.0" standalone="no"?>
<!DOCTYPE svg PUBLIC "-//W3C//DTD SVG 20010904//EN"
 "http://www.w3.org/TR/2001/REC-SVG-20010904/DTD/svg10.dtd">
<svg version="1.0" xmlns="http://www.w3.org/2000/svg"
 width="269.000000pt" height="269.000000pt" viewBox="0 0 269.000000 269.000000"
 preserveAspectRatio="xMidYMid meet">
<metadata>
Created by potrace 1.14, written by Peter Selinger 2001-2017
</metadata>
<g transform="translate(0.000000,269.000000) scale(0.100000,-0.100000)"
fill="#000000" stroke="none">
<path d="M2055 2048 c-27 -5 -64 -15 -82 -23 -17 -8 -34 -15 -37 -15 -16 0
-115 -71 -154 -111 -48 -48 -108 -148 -124 -205 l-10 -37 -146 7 c-81 4 -160
7 -177 6 -46 -1 -129 -27 -159 -51 -15 -12 -30 -19 -33 -15 -3 3 -5 46 -4 96
1 134 -34 200 -127 241 -150 65 -324 -58 -305 -215 5 -41 6 -52 2 -101 -2 -26
-13 -33 -25 -14 -7 12 -84 49 -113 54 -9 2 -43 4 -76 4 l-60 1 1 100 1 100
-209 0 -208 0 0 -483 0 -482 192 -1 c106 -1 221 -4 254 -8 71 -7 160 15 214
54 l33 23 -4 -34 -4 -35 167 1 168 0 0 -23 c0 -40 50 -130 92 -166 69 -60 150
-80 313 -80 118 1 149 4 199 22 71 26 117 60 157 115 46 63 52 97 58 309 l1
27 36 -24 c93 -63 267 -92 385 -65 189 43 353 204 398 392 12 49 16 176 6 218
-36 166 -143 305 -287 373 -40 19 -91 38 -113 43 -57 11 -162 12 -220 2z"/>
</g>
</svg>
